<?xml version="1.0" encoding="UTF-8" standalone="no"?>
<!-- Created with Inkscape (http://www.inkscape.org/) -->
<svg id="svg2" xmlns:rdf="http://www.w3.org/1999/02/22-rdf-syntax-ns#" xmlns="http://www.w3.org/2000/svg" height="256" viewBox="0 0 256 256" width="256" version="1.1" xmlns:cc="http://creativecommons.org/ns#" xmlns:dc="http://purl.org/dc/elements/1.1/">
 <metadata id="metadata7">
  <rdf:RDF>
   <cc:Work rdf:about="">
    <dc:format>image/svg+xml</dc:format>
    <dc:type rdf:resource="http://purl.org/dc/dcmitype/StillImage"/>
    <dc:title/>
   </cc:Work>
  </rdf:RDF>
 </metadata>
 <path id="path4136" style="color-rendering:auto;text-decoration-color:#000000;color:#000000;isolation:auto;mix-blend-mode:normal;shape-rendering:auto;solid-color:#000000;block-progression:tb;text-decoration-line:none;text-decoration-style:solid;image-rendering:auto;white-space:normal;text-indent:0;text-transform:none" d="m210.65 22.725l-24.98 24.978c-16.26-11.726-36.19-18.654-57.67-18.654-54.459 0-98.951 44.492-98.951 98.951 0 21.48 6.928 41.41 18.654 57.67l-24.978 24.98 22.627 22.63 24.978-24.98c16.261 11.72 36.19 18.65 57.67 18.65 54.46 0 98.95-44.49 98.95-98.95 0-21.48-6.93-41.409-18.65-57.67l24.98-24.978-22.63-22.627zm-82.65 38.324c12.74 0 24.62 3.503 34.72 9.603l-92.068 92.068c-6.1-10.1-9.603-21.98-9.603-34.72 0-37.165 29.786-66.951 66.951-66.951zm57.35 32.23c6.1 10.101 9.6 21.981 9.6 34.721 0 37.17-29.78 66.95-66.95 66.95-12.74 0-24.62-3.5-34.721-9.6l92.071-92.071z"/>
</svg>
